<?xml version="1.0" encoding="utf-8"?>
<svg version="1.1" id="layer" x="0px" y="0px" viewBox="0 31.483915328979492 365 173.00205993652344"
      style="enable-background:new 0 0 365 230.1;" xmlns="http://www.w3.org/2000/svg">
      <title>404</title>
      <style type="text/css">
            .st0 {
                  fill: #3EBCA8;
            }

            .st1 {
                  font-family: 'ArialMT';
            }

            .st2 {
                  font-size: 187.6px;
            }

            .st3 {
                  fill: #40BCA8;
            }
      </style>
      <text transform="matrix(1.001699, 0, 0, 1.000002, 5.270012, 184.660278)" class="st0 st1 st2"
            style="white-space: pre;">4
      </text>
      <text transform="matrix(1.001699, 0, 0, 1.000002, 261.309113, 184.660278)" class="st0 st1 st2"
            style="white-space: pre;">4
      </text>
      <path id="Fill-1" class="st3"
            d="M 208.884 87.373 C 200.945 83.48 192.065 81.276 182.622 81.276 C 173.18 81.276 164.3 83.527 156.361 87.373 L 156.361 82.636 C 156.408 68.801 168.106 57.592 182.622 57.592 C 197.092 57.592 208.837 68.801 208.884 82.636 L 208.884 87.373 Z M 182.622 168.979 C 167.166 168.979 154.67 156.457 154.67 141.074 C 154.67 125.644 167.213 113.168 182.622 113.168 C 198.079 113.168 210.575 125.644 210.575 141.074 C 210.575 156.457 198.032 168.979 182.622 168.979 L 182.622 168.979 Z M 230.683 105.523 L 230.683 80.666 L 230.589 80.666 C 229.555 55.059 208.508 34.611 182.622 34.611 C 156.408 34.611 135.173 55.528 134.562 81.558 L 134.515 81.558 L 134.515 105.523 C 127.14 115.466 122.723 127.707 122.723 141.074 C 122.723 174.091 149.549 200.871 182.622 200.871 C 215.696 200.871 242.521 174.091 242.521 141.074 C 242.474 127.707 238.058 115.466 230.683 105.523 L 230.683 105.523 Z" />
      <path id="Fill-4" class="st3"
            d="M 182.716 127.426 C 175.81 127.426 170.173 133.054 170.173 139.948 C 170.173 146.889 175.81 152.471 182.716 152.471 C 189.669 152.471 195.26 146.843 195.26 139.948 C 195.26 133.054 189.669 127.426 182.716 127.426" />
</svg>